<?xml version="1.0" encoding="utf-8"?>
<!-- Generator: Adobe Illustrator 16.0.0, SVG Export Plug-In . SVG Version: 6.00 Build 0)  -->
<!DOCTYPE svg PUBLIC "-//W3C//DTD SVG 1.1//EN" "http://www.w3.org/Graphics/SVG/1.1/DTD/svg11.dtd">
<svg version="1.1" id="Layer_1" xmlns="http://www.w3.org/2000/svg" xmlns:xlink="http://www.w3.org/1999/xlink" x="0px" y="0px"
	 width="152px" height="152px" viewBox="0 0 152 152" enable-background="new 0 0 152 152" xml:space="preserve">
<rect fill="none" width="152" height="152"/>
<path d="M91.393,80.994c7.681-5.035,12.769-13.715,12.769-23.564c0-15.527-12.633-28.161-28.161-28.161
	c-15.527,0-28.161,12.634-28.161,28.161c0,9.85,5.086,18.529,12.768,23.564c-16.967,6.277-29.093,22.617-29.093,41.737h7.346
	c0-20.479,16.661-37.14,37.14-37.14c20.479,0,37.14,16.66,37.14,37.14h7.347C120.486,103.611,108.358,87.271,91.393,80.994z
	 M55.186,57.43c0-11.478,9.337-20.814,20.814-20.814s20.815,9.337,20.815,20.814c0,11.479-9.338,20.815-20.815,20.815
	S55.186,68.908,55.186,57.43z"/>
</svg>
