<?xml version="1.0" encoding="utf-8"?>
<!-- Generator: Adobe Illustrator 16.0.0, SVG Export Plug-In . SVG Version: 6.00 Build 0)  -->
<!DOCTYPE svg PUBLIC "-//W3C//DTD SVG 1.1//EN" "http://www.w3.org/Graphics/SVG/1.1/DTD/svg11.dtd">
<svg version="1.1" id="Layer_1" xmlns="http://www.w3.org/2000/svg" xmlns:xlink="http://www.w3.org/1999/xlink" x="0px" y="0px"
	 width="289.214px" height="34.77px" viewBox="0 0 289.214 34.77" enable-background="new 0 0 289.214 34.77" xml:space="preserve">
<rect y="4.153" fill="#585858" width="4.894" height="26.727"/>
<polygon fill="#585858" points="33.466,4.155 33.466,30.879 29.074,30.879 14.293,11.927 14.293,30.879 9.402,30.879 9.402,4.155 
	14.431,4.155 28.707,22.45 28.707,4.155 "/>
<path fill="#585858" d="M60.852,12.043c-0.619-1.461-1.528-2.746-2.664-3.833c-4.23-3.981-10.568-4.057-11.629-4.057H37.89v26.728
	h8.808c1.288,0,7.424-0.225,11.528-4.132c1.136-1.087,2.007-2.372,2.626-3.833c0.682-1.585,1.023-3.42,1.023-5.38
	C61.875,15.501,61.534,13.667,60.852,12.043 M56.496,21.056c-0.354,0.836-0.884,1.599-1.553,2.26
	c-2.954,2.821-7.967,2.759-8.106,2.759h-3.838V8.677h3.838c0.038,0,1.275-0.036,2.929,0.275c1.515,0.287,3.599,0.949,5.139,2.409
	c0.669,0.625,1.2,1.424,1.553,2.297c0.455,1.012,0.669,2.517,0.669,3.878C57.127,18.859,56.913,20.045,56.496,21.056"/>
<path fill="#585858" d="M132.596,22.859l3.195,3.146c-0.981,1.191-2.172,2.202-3.526,2.983c-2.094,1.217-4.476,1.891-6.899,1.891
	c-1.854,0-3.61-0.379-5.277-1.077c-1.647-0.668-3.104-1.625-4.331-2.888c-1.258-1.222-2.231-2.672-2.899-4.29
	c-0.71-1.673-1.077-3.405-1.077-5.229c0-1.854,0.367-3.585,1.077-5.258c0.668-1.624,1.642-3.074,2.899-4.289
	c1.228-1.265,2.684-2.227,4.331-2.889c0.849-0.354,1.728-0.626,2.63-0.812c0.854-0.169,1.744-0.259,2.647-0.259
	c0.541,0,1.089,0.035,1.63,0.102c1.558,0.181,3.067,0.626,4.476,1.336c1.829,0.92,3.044,1.799,4.32,3.423l-3.195,3.129
	c-0.83-1.07-1.9-1.956-3.128-2.593c-1.312-0.626-2.684-0.957-4.103-0.957c-2.461,0-4.724,0.921-6.438,2.665
	c-1.744,1.697-2.683,3.959-2.683,6.401c0,2.413,0.938,4.675,2.683,6.371c1.715,1.744,3.978,2.666,6.438,2.666
	c1.605,0,3.235-0.446,4.626-1.252C131.007,24.568,131.892,23.785,132.596,22.859"/>
<path fill="#585858" d="M163.701,12.165c-0.674-1.62-1.688-3.068-2.934-4.284c-1.273-1.264-2.734-2.221-4.357-2.884
	c-1.697-0.699-3.494-1.067-5.342-1.067c-1.836,0-3.646,0.368-5.33,1.067c-1.624,0.663-3.096,1.62-4.371,2.884
	c-1.235,1.216-2.222,2.664-2.933,4.284c-0.713,1.669-1.05,3.399-1.05,5.216c0,1.854,0.337,3.584,1.05,5.253
	c0.711,1.62,1.697,3.068,2.933,4.283c1.274,1.266,2.747,2.224,4.371,2.884c1.684,0.7,3.494,1.08,5.33,1.08
	c1.848,0,3.645-0.38,5.342-1.08c1.623-0.66,3.084-1.618,4.357-2.884c1.246-1.215,2.26-2.663,2.934-4.283
	c0.723-1.669,1.098-3.398,1.098-5.253C164.798,15.563,164.423,13.833,163.701,12.165 M157.572,23.775
	c-1.723,1.743-4.059,2.663-6.504,2.663c-2.447,0-4.771-0.92-6.504-2.663c-1.724-1.694-2.671-3.952-2.671-6.396
	c0-2.405,0.947-4.651,2.671-6.356c1.733-1.743,4.057-2.663,6.504-2.663c2.445,0,4.781,0.92,6.504,2.663
	c1.732,1.706,2.709,3.952,2.709,6.356C160.281,19.823,159.304,22.081,157.572,23.775"/>
<path fill="#585858" d="M101.672,4.155h-5.329l-9.639,22.326l-1.907,4.396h5.114l2.49-5.631h13.374l2.449,5.631h5.005L101.672,4.155
	z M94.164,21.216l4.921-11.327l4.939,11.327H94.164z"/>
<path fill="#585858" d="M87.094,27.187L81.9,19.42c1.132-0.262,2.545-0.835,3.717-1.96c0.682-0.674,1.225-1.423,1.564-2.333
	c0.376-0.937,0.605-2.022,0.605-3.233c0-3.082-1.488-5.528-4.138-6.804c-1.864-0.896-3.654-0.937-3.88-0.937H63.972V30.88h4.941
	V8.286h10.817c0.075,0,1.108,0.039,2.094,0.525c1.208,0.6,1.79,1.584,1.79,3.082c0,1.176-0.317,1.999-0.923,2.599
	c-1.017,0.972-2.736,1.008-2.886,1.008h-6.484l10.784,15.38h5.46L87.094,27.187z"/>
<path fill="#585858" d="M171.201,9.152c-1.877,1.877-4.449,2.348-5.744,1.052c-1.295-1.295-0.824-3.867,1.051-5.744
	c1.877-1.876,4.449-2.347,5.744-1.052C173.546,4.704,173.078,7.275,171.201,9.152"/>
<path fill="#585858" d="M168.916,16.326c-1.42-0.516-2.281-1.729-1.924-2.708c0.355-0.979,1.795-1.354,3.215-0.839
	c1.418,0.517,2.279,1.729,1.922,2.709C171.773,16.467,170.333,16.842,168.916,16.326"/>
<path fill="#585858" d="M164.726,2.739c0,1.513-0.848,2.739-1.893,2.739s-1.891-1.227-1.891-2.739S161.789,0,162.833,0
	S164.726,1.226,164.726,2.739"/>
<path fill="#585858" d="M196.742,11.866c-0.048-1.106-0.281-2.067-0.701-2.886c-0.424-0.816-0.994-1.504-1.715-2.057
	c-0.724-0.556-1.584-0.97-2.582-1.244c-0.998-0.276-2.084-0.417-3.266-0.417c-0.72,0-1.497,0.085-2.324,0.252
	c-0.832,0.171-1.602,0.464-2.313,0.884c-0.707,0.424-1.293,0.986-1.75,1.696c-0.455,0.712-0.686,1.596-0.686,2.652
	c0,1.036,0.254,1.876,0.758,2.525c0.506,0.65,1.166,1.174,1.985,1.569c0.815,0.396,1.757,0.718,2.813,0.957
	c1.06,0.238,2.129,0.468,3.212,0.686c1.106,0.218,2.182,0.476,3.229,0.774c1.045,0.303,1.984,0.71,2.813,1.229
	c0.83,0.517,1.496,1.188,2.003,2.02c0.505,0.831,0.758,1.871,0.758,3.122c0,1.349-0.288,2.479-0.867,3.393
	c-0.575,0.916-1.304,1.658-2.182,2.236s-1.853,0.992-2.921,1.245c-1.072,0.252-2.1,0.378-3.088,0.378
	c-1.514,0-2.936-0.16-4.258-0.486c-1.324-0.326-2.478-0.854-3.465-1.588c-0.986-0.731-1.762-1.678-2.324-2.831
	c-0.566-1.154-0.838-2.563-0.813-4.224h1.589c-0.072,1.419,0.133,2.616,0.613,3.591c0.48,0.974,1.148,1.774,2.003,2.399
	c0.853,0.626,1.858,1.078,3.013,1.354c1.154,0.275,2.369,0.413,3.645,0.413c0.77,0,1.595-0.097,2.473-0.286
	c0.878-0.194,1.684-0.519,2.417-0.977s1.349-1.06,1.841-1.806c0.49-0.743,0.74-1.684,0.74-2.813c0-1.084-0.253-1.968-0.761-2.651
	c-0.505-0.688-1.173-1.239-2-1.659c-0.831-0.422-1.771-0.757-2.815-1.01c-1.046-0.252-2.123-0.487-3.23-0.705
	c-1.079-0.218-2.151-0.47-3.209-0.757c-1.061-0.288-1.996-0.68-2.815-1.173c-0.815-0.492-1.479-1.131-1.983-1.914
	c-0.506-0.78-0.758-1.785-0.758-3.013s0.258-2.279,0.774-3.157c0.521-0.878,1.19-1.589,2.022-2.129
	c0.828-0.54,1.762-0.937,2.795-1.191c1.033-0.252,2.057-0.378,3.065-0.378c1.349,0,2.604,0.151,3.771,0.451
	c1.168,0.303,2.19,0.771,3.068,1.406c0.879,0.636,1.583,1.462,2.111,2.474c0.527,1.01,0.828,2.226,0.9,3.644L196.742,11.866
	L196.742,11.866z"/>
<path fill="#585858" d="M199.64,5.875V4.504h19.738v1.371h-9.096v24.394h-1.588V5.875H199.64z"/>
<path fill="#585858" d="M245.221,17.385c0,1.877-0.275,3.64-0.827,5.285c-0.556,1.65-1.354,3.08-2.399,4.296
	c-1.048,1.214-2.328,2.171-3.844,2.869c-1.516,0.696-3.234,1.045-5.159,1.045c-1.926,0-3.649-0.349-5.177-1.045
	c-1.53-0.698-2.814-1.655-3.861-2.869c-1.048-1.216-1.847-2.646-2.398-4.296c-0.555-1.646-0.83-3.408-0.83-5.285
	c0-1.876,0.275-3.638,0.83-5.284c0.553-1.647,1.352-3.08,2.398-4.293c1.047-1.217,2.331-2.17,3.861-2.869
	c1.527-0.699,3.251-1.048,5.177-1.048c1.925,0,3.646,0.349,5.159,1.048c1.516,0.699,2.796,1.652,3.844,2.869
	c1.047,1.213,1.844,2.646,2.399,4.293C244.946,13.749,245.221,15.51,245.221,17.385z M222.312,17.385
	c0,1.659,0.237,3.226,0.72,4.692c0.48,1.465,1.182,2.748,2.094,3.841c0.914,1.097,2.032,1.967,3.356,2.616
	c1.321,0.649,2.823,0.975,4.51,0.975c1.683,0,3.181-0.324,4.492-0.975c1.312-0.649,2.423-1.521,3.336-2.616
	c0.916-1.093,1.612-2.376,2.095-3.841c0.48-1.468,0.723-3.033,0.723-4.692c0-1.658-0.241-3.221-0.723-4.688
	c-0.482-1.468-1.179-2.748-2.095-3.844c-0.913-1.096-2.024-1.968-3.336-2.616c-1.313-0.648-2.81-0.975-4.492-0.975
	c-1.687,0-3.188,0.325-4.51,0.975c-1.324,0.648-2.442,1.521-3.356,2.616c-0.912,1.096-1.611,2.376-2.094,3.844
	C222.549,14.166,222.312,15.727,222.312,17.385z"/>
<path fill="#585858" d="M247.993,4.504h10.753c1.131,0,2.188,0.114,3.176,0.345c0.985,0.229,1.853,0.602,2.598,1.117
	c0.746,0.519,1.33,1.198,1.75,2.038c0.421,0.844,0.632,1.893,0.632,3.141c0,1.731-0.487,3.193-1.462,4.384
	c-0.973,1.191-2.325,1.932-4.059,2.22v0.073c1.178,0.144,2.11,0.455,2.795,0.937c0.688,0.481,1.198,1.072,1.537,1.769
	c0.334,0.699,0.551,1.469,0.647,2.312c0.094,0.844,0.146,1.684,0.146,2.525c0,0.505,0,0.998,0,1.479
	c0,0.481,0.022,0.932,0.069,1.352c0.05,0.423,0.126,0.813,0.233,1.175c0.109,0.362,0.26,0.66,0.453,0.901h-1.769
	c-0.338-0.603-0.522-1.305-0.562-2.111c-0.034-0.805-0.053-1.642-0.053-2.508s-0.035-1.728-0.109-2.578
	c-0.072-0.854-0.299-1.618-0.684-2.293c-0.388-0.673-0.992-1.213-1.822-1.624c-0.832-0.408-2.004-0.613-3.52-0.613h-9.164V30.27
	h-1.589V4.504H247.993z M258.746,17.169c0.938,0,1.811-0.111,2.616-0.341c0.806-0.229,1.498-0.585,2.073-1.065
	c0.578-0.481,1.037-1.093,1.371-1.839c0.338-0.746,0.506-1.636,0.506-2.672c0-0.96-0.18-1.785-0.541-2.473
	c-0.36-0.686-0.844-1.242-1.441-1.677c-0.602-0.433-1.301-0.746-2.094-0.938c-0.793-0.193-1.624-0.291-2.49-0.291h-9.164v11.294
	L258.746,17.169L258.746,17.169z"/>
<path fill="#585858" d="M271.712,4.504h17.32v1.371h-15.73v10.321h14.793v1.371h-14.793v11.329h15.912v1.371h-17.502V4.504
	L271.712,4.504z"/>
</svg>
