<?xml version="1.0" encoding="utf-8"?>
<!-- Generator: Adobe Illustrator 16.0.0, SVG Export Plug-In . SVG Version: 6.00 Build 0)  -->
<!DOCTYPE svg PUBLIC "-//W3C//DTD SVG 1.1//EN" "http://www.w3.org/Graphics/SVG/1.1/DTD/svg11.dtd">
<svg version="1.1" id="Layer_1" xmlns="http://www.w3.org/2000/svg" xmlns:xlink="http://www.w3.org/1999/xlink" x="0px" y="0px"
	 width="156px" height="156px" viewBox="0 0 156 156" enable-background="new 0 0 156 156" xml:space="preserve">
<path fill="#808080" d="M115.324,63.647c-2.953-7.1-7.395-13.446-12.855-18.774c-5.58-5.537-11.982-9.73-19.095-12.637
	c-7.438-3.063-15.312-4.678-23.408-4.678c-8.045,0-15.979,1.614-23.356,4.678c-7.117,2.906-13.565,7.1-19.155,12.637
	C12.041,50.201,7.715,56.548,4.6,63.647c-3.124,7.313-4.601,14.892-4.601,22.855c0,8.123,1.477,15.706,4.601,23.02
	c3.115,7.1,7.438,13.445,12.854,18.77c5.581,5.546,12.034,9.744,19.155,12.637c7.378,3.068,15.312,4.732,23.356,4.732
	c8.097,0,15.971-1.664,23.408-4.732c7.112-2.893,13.515-7.091,19.095-12.637c5.461-5.324,9.902-11.67,12.855-18.77
	c3.167-7.313,4.811-14.893,4.811-23.02C120.135,78.535,118.491,70.956,115.324,63.647 M88.467,114.521
	c-7.549,7.639-17.785,11.67-28.501,11.67c-10.724,0-20.909-4.031-28.5-11.67c-7.558-7.42-11.709-17.314-11.709-28.025
	c0-10.54,4.151-20.383,11.709-27.854c7.591-7.639,17.776-11.67,28.5-11.67c10.716,0,20.952,4.031,28.501,11.67
	c7.592,7.476,11.871,17.318,11.871,27.854C100.338,97.206,96.059,107.101,88.467,114.521"/>
<path fill="#FD4F00" d="M148.19,50.441c-8.226,8.225-19.497,10.291-25.172,4.612c-5.675-5.674-3.611-16.946,4.604-25.171
	c8.226-8.221,19.497-10.288,25.172-4.609C158.469,30.952,156.415,42.216,148.19,50.441"/>
<path fill="#FD4F00" d="M138.177,81.882c-6.223-2.264-9.997-7.579-8.431-11.867c1.558-4.292,7.865-5.936,14.088-3.68
	c6.213,2.268,9.987,7.578,8.422,11.871C150.698,82.498,144.39,84.142,138.177,81.882"/>
<path fill="#FD4F00" d="M119.817,22.343c0,6.629-3.714,11.999-8.293,11.999s-8.294-5.375-8.294-11.999
	c0-6.629,3.715-12.004,8.294-12.004C116.095,10.339,119.817,15.709,119.817,22.343"/>
</svg>
