<?xml version="1.0" encoding="utf-8"?>
<!-- Generator: Adobe Illustrator 16.0.0, SVG Export Plug-In . SVG Version: 6.00 Build 0)  -->
<!DOCTYPE svg PUBLIC "-//W3C//DTD SVG 1.1//EN" "http://www.w3.org/Graphics/SVG/1.1/DTD/svg11.dtd">
<svg version="1.1" id="Layer_1" xmlns="http://www.w3.org/2000/svg" xmlns:xlink="http://www.w3.org/1999/xlink" x="0px" y="0px"
	 width="156px" height="156px" viewBox="0 0 156 156" enable-background="new 0 0 156 156" xml:space="preserve">
<g>
	<path d="M106.104,34.399H49.898c-5.173,0-9.368,4.194-9.368,9.368v46.838c0,5.173,4.195,9.369,9.368,9.369h56.206
		c5.172,0,9.367-4.196,9.367-9.369V43.768C115.471,38.593,111.275,34.399,106.104,34.399z M61.606,48.451
		c3.882,0,7.026,3.145,7.026,7.025s-3.145,7.024-7.026,7.024c-3.88,0-7.025-3.144-7.025-7.024S57.726,48.451,61.606,48.451z
		 M110.788,90.605c0,2.588-2.096,4.684-4.685,4.684H49.898c-2.587,0-4.684-2.094-4.684-4.684v-4.684l12.393-11.023
		c0.789-0.786,2.024-0.909,2.95-0.292l12.46,8.297l17.377-17.375c0.716-0.712,1.803-0.888,2.7-0.434l17.691,9.117v16.394H110.788z"
		/>
	<polygon points="39.206,117.949 33.212,110.196 31.39,110.196 31.39,121.41 33.344,121.41 33.344,113.434 39.512,121.41 
		41.159,121.41 41.159,110.196 39.206,110.196 	"/>
	<path d="M53.635,111.704c-0.513-0.524-1.127-0.937-1.841-1.241c-0.715-0.304-1.506-0.456-2.37-0.456
		c-0.864,0-1.654,0.154-2.37,0.463c-0.715,0.312-1.334,0.728-1.858,1.259c-0.523,0.527-0.929,1.143-1.217,1.85
		c-0.289,0.703-0.433,1.451-0.433,2.241c0,0.791,0.144,1.536,0.433,2.242c0.288,0.704,0.688,1.319,1.201,1.84
		c0.513,0.523,1.127,0.938,1.842,1.241c0.715,0.306,1.505,0.458,2.37,0.458c0.864,0,1.655-0.154,2.37-0.465
		c0.715-0.308,1.334-0.728,1.857-1.257c0.523-0.527,0.93-1.145,1.218-1.849c0.288-0.704,0.433-1.452,0.433-2.24
		c0-0.793-0.145-1.54-0.433-2.244C54.547,112.841,54.147,112.227,53.635,111.704z M52.922,117.365
		c-0.187,0.484-0.446,0.906-0.777,1.266c-0.331,0.357-0.729,0.643-1.193,0.848c-0.464,0.209-0.975,0.313-1.53,0.313
		c-0.555,0-1.068-0.106-1.537-0.321c-0.469-0.214-0.872-0.501-1.208-0.864c-0.337-0.363-0.598-0.786-0.786-1.271
		c-0.186-0.488-0.28-1.002-0.28-1.545c0-0.547,0.095-1.061,0.28-1.549c0.188-0.485,0.446-0.905,0.778-1.265
		c0.332-0.356,0.729-0.639,1.193-0.847c0.464-0.211,0.974-0.314,1.529-0.314c0.556,0,1.067,0.107,1.538,0.319
		c0.469,0.215,0.873,0.501,1.208,0.866c0.337,0.362,0.598,0.788,0.785,1.275c0.187,0.485,0.28,0.998,0.28,1.543
		C53.202,116.363,53.108,116.879,52.922,117.365z"/>
	<rect x="62.571" y="110.196" width="1.954" height="11.212"/>
	<polygon points="73.043,115.499 69.632,110.196 67.535,110.196 67.535,121.41 69.488,121.41 69.488,113.401 72.997,118.653 
		73.061,118.653 76.599,113.369 76.599,121.41 78.553,121.41 78.553,110.196 76.455,110.196 	"/>
	<path d="M85.406,110.118l-4.932,11.292h2.018l1.152-2.709h5.302l1.137,2.709h2.083l-4.935-11.292H85.406z M84.366,116.956
		l1.921-4.483l1.938,4.483H84.366z"/>
	<path d="M98.619,116.86h2.867v2.109c-0.343,0.259-0.745,0.463-1.21,0.619c-0.462,0.156-0.963,0.232-1.498,0.232
		c-0.575,0-1.097-0.101-1.562-0.304c-0.464-0.203-0.864-0.484-1.201-0.843c-0.337-0.357-0.595-0.783-0.775-1.277
		c-0.181-0.489-0.274-1.024-0.274-1.604c0-0.546,0.095-1.058,0.28-1.538c0.188-0.481,0.443-0.905,0.77-1.269
		c0.326-0.365,0.711-0.648,1.152-0.858c0.444-0.209,0.92-0.314,1.434-0.314c0.353,0,0.676,0.03,0.969,0.09
		c0.293,0.058,0.563,0.14,0.811,0.239c0.244,0.104,0.479,0.229,0.703,0.376c0.224,0.152,0.442,0.315,0.657,0.498l1.247-1.489
		c-0.288-0.246-0.584-0.463-0.889-0.648c-0.305-0.187-0.626-0.345-0.969-0.472c-0.342-0.129-0.714-0.229-1.112-0.297
		c-0.4-0.069-0.847-0.104-1.337-0.104c-0.844,0-1.62,0.154-2.331,0.463c-0.71,0.312-1.319,0.728-1.834,1.259
		c-0.511,0.527-0.908,1.143-1.192,1.85c-0.281,0.703-0.426,1.451-0.426,2.241c0,0.821,0.14,1.585,0.417,2.291
		c0.278,0.702,0.67,1.314,1.178,1.834c0.506,0.518,1.118,0.922,1.832,1.218c0.718,0.293,1.513,0.438,2.39,0.438
		c0.489,0,0.96-0.045,1.409-0.135c0.448-0.093,0.867-0.218,1.257-0.377c0.389-0.161,0.753-0.349,1.089-0.561
		c0.336-0.215,0.643-0.438,0.922-0.674v-4.708h-4.773L98.619,116.86L98.619,116.86z"/>
	<polygon points="107.906,116.637 113.528,116.637 113.528,114.857 107.906,114.857 107.906,111.975 114.249,111.975 
		114.249,110.196 105.954,110.196 105.954,121.41 114.33,121.41 114.33,119.631 107.906,119.631 	"/>
	<path d="M124.378,116.98c-0.154-0.347-0.384-0.65-0.684-0.913c-0.3-0.26-0.676-0.483-1.131-0.665
		c-0.454-0.18-0.978-0.346-1.565-0.496c-0.536-0.128-0.977-0.251-1.324-0.368s-0.621-0.244-0.819-0.385
		c-0.197-0.139-0.335-0.288-0.409-0.449c-0.074-0.16-0.111-0.352-0.111-0.577c0-0.373,0.158-0.688,0.479-0.951
		c0.32-0.262,0.768-0.392,1.345-0.392c0.514,0,1.02,0.098,1.522,0.297c0.501,0.198,1.009,0.484,1.521,0.857l1.057-1.491
		c-0.575-0.459-1.193-0.809-1.849-1.048c-0.657-0.241-1.396-0.359-2.218-0.359c-0.556,0-1.067,0.076-1.537,0.232
		c-0.468,0.154-0.868,0.375-1.203,0.663c-0.334,0.287-0.596,0.633-0.785,1.032c-0.193,0.4-0.288,0.848-0.288,1.337
		c0,0.523,0.084,0.967,0.248,1.329c0.167,0.363,0.407,0.674,0.725,0.931c0.315,0.255,0.706,0.47,1.171,0.64
		c0.465,0.173,0.998,0.325,1.599,0.466c0.522,0.127,0.949,0.25,1.275,0.368c0.326,0.116,0.584,0.242,0.771,0.375
		c0.187,0.133,0.315,0.279,0.385,0.442c0.07,0.159,0.104,0.338,0.104,0.543c0,0.437-0.179,0.784-0.537,1.041
		c-0.357,0.256-0.84,0.384-1.449,0.384c-0.704,0-1.334-0.127-1.89-0.375c-0.556-0.253-1.104-0.612-1.648-1.083l-1.185,1.41
		c0.672,0.61,1.403,1.061,2.192,1.354c0.79,0.293,1.618,0.438,2.483,0.438c0.587,0,1.127-0.074,1.616-0.222
		c0.489-0.152,0.909-0.37,1.259-0.657c0.35-0.29,0.623-0.64,0.818-1.058c0.195-0.415,0.293-0.891,0.293-1.425
		C124.61,117.736,124.532,117.328,124.378,116.98z"/>
</g>
</svg>
